HIERARCHY
ROOT Hips
{
  OFFSET -333.48 92.8645 603.921
  CHANNELS 6 Xposition Yposition Zposition Zrotation Xrotation Yrotation
  JOINT Spine
  {
    OFFSET 0 8 0
    CHANNELS 6 Xposition Yposition Zposition Zrotation Xrotation Yrotation
    JOINT Spine1
    {
      OFFSET 0 8 2.13312e-05
      CHANNELS 6 Xposition Yposition Zposition Zrotation Xrotation Yrotation
      JOINT Spine2
      {
        OFFSET 1.24385e-05 8 0
        CHANNELS 6 Xposition Yposition Zposition Zrotation Xrotation Yrotation
        JOINT Spine3
        {
          OFFSET 0 8 0
          CHANNELS 6 Xposition Yposition Zposition Zrotation Xrotation Yrotation
          JOINT Neck
          {
            OFFSET -0.000227859 17 3.30626e-05
            CHANNELS 6 Xposition Yposition Zposition Zrotation Xrotation Yrotation
            JOINT Head
            {
              OFFSET 0 10.8 3.54164e-05
              CHANNELS 6 Xposition Yposition Zposition Zrotation Xrotation Yrotation
              End Site
              {
                OFFSET 0 20.25 0
              }
            }
          }
          JOINT LeftShoulder
          {
            OFFSET 4.99976 17.0001 2.71525e-05
            CHANNELS 6 Xposition Yposition Zposition Zrotation Xrotation Yrotation
            JOINT LeftShoulder2
            {
              OFFSET 6.45 0 0
              CHANNELS 6 Xposition Yposition Zposition Zrotation Xrotation Yrotation
              JOINT LeftArm
              {
                OFFSET 6.45002 -0.000548093 3.30381e-05
                CHANNELS 6 Xposition Yposition Zposition Zrotation Xrotation Yrotation
                JOINT LeftForeArm
                {
                  OFFSET 0 -32.4 -1.99613
                  CHANNELS 6 Xposition Yposition Zposition Zrotation Xrotation Yrotation
                  JOINT LeftHand
                  {
                    OFFSET -3.1678e-05 -25.65 2
                    CHANNELS 6 Xposition Yposition Zposition Zrotation Xrotation Yrotation
                    JOINT LeftHandThumb1
                    {
                      OFFSET -0.499991 -1.5 2.64998
                      CHANNELS 6 Xposition Yposition Zposition Zrotation Xrotation Yrotation
                      JOINT LeftHandThumb2
                      {
                        OFFSET 0 -3.8 3.70006
                        CHANNELS 6 Xposition Yposition Zposition Zrotation Xrotation Yrotation
                        JOINT LeftHandThumb3
                        {
                          OFFSET 0 -2.99999 2.69995
                          CHANNELS 6 Xposition Yposition Zposition Zrotation Xrotation Yrotation
                          End Site
                          {
                            OFFSET 0 -2.30003 1.80001
                          }
                        }
                      }
                    }
                    JOINT LeftHandIndex
                    {
                      OFFSET 2.92626e-05 -1.90005 1.60001
                      CHANNELS 6 Xposition Yposition Zposition Zrotation Xrotation Yrotation
                      JOINT LeftHandIndex1
                      {
                        OFFSET -1.57304e-05 -8.30002 1.89999
                        CHANNELS 6 Xposition Yposition Zposition Zrotation Xrotation Yrotation
                        JOINT LeftHandIndex2
                        {
                          OFFSET 0 -4.49995 -2.58332e-05
                          CHANNELS 6 Xposition Yposition Zposition Zrotation Xrotation Yrotation
                          JOINT LeftHandIndex3
                          {
                            OFFSET -6.19947e-05 -3.42937 5.13309e-05
                            CHANNELS 6 Xposition Yposition Zposition Zrotation Xrotation Yrotation
                            End Site
                            {
                              OFFSET 0 -2.59992 -1.33246e-05
                            }
                          }
                        }
                      }
                    }
                    JOINT LeftHandMiddle
                    {
                      OFFSET -0.249998 -2.2 0.400022
                      CHANNELS 6 Xposition Yposition Zposition Zrotation Xrotation Yrotation
                      JOINT LeftHandMiddle1
                      {
                        OFFSET -1.10905e-05 -8.3 0.999971
                        CHANNELS 6 Xposition Yposition Zposition Zrotation Xrotation Yrotation
                        JOINT LeftHandMiddle2
                        {
                          OFFSET 0 -4.64994 1.63598e-05
                          CHANNELS 6 Xposition Yposition Zposition Zrotation Xrotation Yrotation
                          JOINT LeftHandMiddle3
                          {
                            OFFSET -2.88335e-05 -3.30003 0
                            CHANNELS 6 Xposition Yposition Zposition Zrotation Xrotation Yrotation
                            End Site
                            {
                              OFFSET -2.87751e-05 -2.69996 0
                            }
                          }
                        }
                      }
                    }
                    JOINT LeftHandRing
                    {
                      OFFSET -0.50001 -2.15004 -0.799998
                      CHANNELS 6 Xposition Yposition Zposition Zrotation Xrotation Yrotation
                      JOINT LeftHandRing1
                      {
                        OFFSET 0 -7.75 -0.199983
                        CHANNELS 6 Xposition Yposition Zposition Zrotation Xrotation Yrotation
                        JOINT LeftHandRing2
                        {
                          OFFSET 0 -3.86076 -2.15507e-05
                          CHANNELS 6 Xposition Yposition Zposition Zrotation Xrotation Yrotation
                          JOINT LeftHandRing3
                          {
                            OFFSET 0 -3.4 0
                            CHANNELS 6 Xposition Yposition Zposition Zrotation Xrotation Yrotation
                            End Site
                            {
                              OFFSET -4.78214e-05 -2.60003 1.2199e-05
                            }
                          }
                        }
                      }
                    }
                    JOINT LeftHandPinky
                    {
                      OFFSET -0.750017 -1.75 -1.84999
                      CHANNELS 6 Xposition Yposition Zposition Zrotation Xrotation Yrotation
                      JOINT LeftHandPinky1
                      {
                        OFFSET -1.39196e-05 -7.15002 -1.00003
                        CHANNELS 6 Xposition Yposition Zposition Zrotation Xrotation Yrotation
                        JOINT LeftHandPinky2
                        {
                          OFFSET 1.25725e-05 -3.00774 0
                          CHANNELS 6 Xposition Yposition Zposition Zrotation Xrotation Yrotation
                          JOINT LeftHandPinky3
                          {
                            OFFSET -4.04834e-05 -2.35002 2.92657e-05
                            CHANNELS 6 Xposition Yposition Zposition Zrotation Xrotation Yrotation
                            End Site
                            {
                              OFFSET 0 -2.09997 -2.54114e-05
                            }
                          }
                        }
                      }
                    }
                  }
                }
              }
            }
          }
          JOINT RightShoulder
          {
            OFFSET -5.00022 16.9999 0.000108689
            CHANNELS 6 Xposition Yposition Zposition Zrotation Xrotation Yrotation
            JOINT RightShoulder2
            {
              OFFSET -6.45 0 0
              CHANNELS 6 Xposition Yposition Zposition Zrotation Xrotation Yrotation
              JOINT RightArm
              {
                OFFSET -6.45001 0.000490419 -0.000242947
                CHANNELS 6 Xposition Yposition Zposition Zrotation Xrotation Yrotation
                JOINT RightForeArm
                {
                  OFFSET -5.90473e-05 -32.4 -1.99998
                  CHANNELS 6 Xposition Yposition Zposition Zrotation Xrotation Yrotation
                  JOINT RightHand
                  {
                    OFFSET 5.84957e-05 -25.65 1.99999
                    CHANNELS 6 Xposition Yposition Zposition Zrotation Xrotation Yrotation
                    JOINT RightHandThumb1
                    {
                      OFFSET 0.499992 -1.5 2.65001
                      CHANNELS 6 Xposition Yposition Zposition Zrotation Xrotation Yrotation
                      JOINT RightHandThumb2
                      {
                        OFFSET -2.25273e-05 -3.80004 3.69999
                        CHANNELS 6 Xposition Yposition Zposition Zrotation Xrotation Yrotation
                        JOINT RightHandThumb3
                        {
                          OFFSET -2.03544e-05 -2.99999 2.70001
                          CHANNELS 6 Xposition Yposition Zposition Zrotation Xrotation Yrotation
                          End Site
                          {
                            OFFSET 0 -2.3 1.80002
                          }
                        }
                      }
                    }
                    JOINT RightHandIndex
                    {
                      OFFSET 6.60834e-05 -1.89996 1.6
                      CHANNELS 6 Xposition Yposition Zposition Zrotation Xrotation Yrotation
                      JOINT RightHandIndex1
                      {
                        OFFSET -7.55967e-05 -8.30005 1.89996
                        CHANNELS 6 Xposition Yposition Zposition Zrotation Xrotation Yrotation
                        JOINT RightHandIndex2
                        {
                          OFFSET 0 -4.50001 5.8028e-05
                          CHANNELS 6 Xposition Yposition Zposition Zrotation Xrotation Yrotation
                          JOINT RightHandIndex3
                          {
                            OFFSET 2.74893e-05 -3.4 -1.60923e-05
                            CHANNELS 6 Xposition Yposition Zposition Zrotation Xrotation Yrotation
                            End Site
                            {
                              OFFSET 0 -2.60001 1.70492e-05
                            }
                          }
                        }
                      }
                    }
                    JOINT RightHandMiddle
                    {
                      OFFSET 0.249983 -2.20002 0.400026
                      CHANNELS 6 Xposition Yposition Zposition Zrotation Xrotation Yrotation
                      JOINT RightHandMiddle1
                      {
                        OFFSET 0 -8.29996 0.999997
                        CHANNELS 6 Xposition Yposition Zposition Zrotation Xrotation Yrotation
                        JOINT RightHandMiddle2
                        {
                          OFFSET 0 -4.65 -3.63186e-05
                          CHANNELS 6 Xposition Yposition Zposition Zrotation Xrotation Yrotation
                          JOINT RightHandMiddle3
                          {
                            OFFSET 4.08957e-05 -3.30003 0
                            CHANNELS 6 Xposition Yposition Zposition Zrotation Xrotation Yrotation
                            End Site
                            {
                              OFFSET -3.26693e-05 -2.69991 6.2954e-05
                            }
                          }
                        }
                      }
                    }
                    JOINT RightHandRing
                    {
                      OFFSET 0.499982 -2.15002 -0.800018
                      CHANNELS 6 Xposition Yposition Zposition Zrotation Xrotation Yrotation
                      JOINT RightHandRing1
                      {
                        OFFSET 6.44453e-05 -7.75003 -0.200022
                        CHANNELS 6 Xposition Yposition Zposition Zrotation Xrotation Yrotation
                        JOINT RightHandRing2
                        {
                          OFFSET 2.54578e-05 -3.79999 1.60032e-05
                          CHANNELS 6 Xposition Yposition Zposition Zrotation Xrotation Yrotation
                          JOINT RightHandRing3
                          {
                            OFFSET -3.53643e-05 -3.39997 0
                            CHANNELS 6 Xposition Yposition Zposition Zrotation Xrotation Yrotation
                            End Site
                            {
                              OFFSET -4.53894e-05 -2.59996 -1.40679e-05
                            }
                          }
                        }
                      }
                    }
                    JOINT RightHandPinky
                    {
                      OFFSET 0.750044 -1.74994 -1.84996
                      CHANNELS 6 Xposition Yposition Zposition Zrotation Xrotation Yrotation
                      JOINT RightHandPinky1
                      {
                        OFFSET -5.11319e-05 -7.15002 -1
                        CHANNELS 6 Xposition Yposition Zposition Zrotation Xrotation Yrotation
                        JOINT RightHandPinky2
                        {
                          OFFSET -2.22334e-05 -3.00002 3.62022e-05
                          CHANNELS 6 Xposition Yposition Zposition Zrotation Xrotation Yrotation
                          JOINT RightHandPinky3
                          {
                            OFFSET -3.85804e-05 -2.35003 0
                            CHANNELS 6 Xposition Yposition Zposition Zrotation Xrotation Yrotation
                            End Site
                            {
                              OFFSET 2.74963e-05 -2.09992 0
                            }
                          }
                        }
                      }
                    }
                  }
                }
              }
            }
          }
        }
      }
    }
  }
  JOINT LeftUpLeg
  {
    OFFSET 7.99999 0 1.02701e-05
    CHANNELS 6 Xposition Yposition Zposition Zrotation Xrotation Yrotation
    JOINT LeftLeg
    {
      OFFSET 2.93879e-05 -45 -0.999989
      CHANNELS 6 Xposition Yposition Zposition Zrotation Xrotation Yrotation
      JOINT LeftFoot
      {
        OFFSET 0 -41.0001 -1.99999
        CHANNELS 6 Xposition Yposition Zposition Zrotation Xrotation Yrotation
        JOINT LeftToeBase
        {
          OFFSET 3.48862e-05 -7.5 12.5
          CHANNELS 6 Xposition Yposition Zposition Zrotation Xrotation Yrotation
          JOINT LeftFootToe
          {
            OFFSET 0 0 4
            CHANNELS 6 Xposition Yposition Zposition Zrotation Xrotation Yrotation
            End Site
            {
              OFFSET 0 0 0
            }
          }
        }
      }
    }
  }
  JOINT RightUpLeg
  {
    OFFSET -7.99999 0 -1.02701e-05
    CHANNELS 6 Xposition Yposition Zposition Zrotation Xrotation Yrotation
    JOINT RightLeg
    {
      OFFSET 0 -45 -1.00001
      CHANNELS 6 Xposition Yposition Zposition Zrotation Xrotation Yrotation
      JOINT RightFoot
      {
        OFFSET 0 -41 -2.00006
        CHANNELS 6 Xposition Yposition Zposition Zrotation Xrotation Yrotation
        JOINT RightToeBase
        {
          OFFSET 4.4518e-05 -7.50001 12.5
          CHANNELS 6 Xposition Yposition Zposition Zrotation Xrotation Yrotation
          JOINT RightFootToe
          {
            OFFSET 0 0 4
            CHANNELS 6 Xposition Yposition Zposition Zrotation Xrotation Yrotation
            End Site
            {
              OFFSET 0 0 0
            }
          }
        }
      }
    }
  }
}
MOTION
Frames:	2
Frame Time:	0.0111111
-323.613 92.6484 606.604 -0.226845 -1.39281 156.138 -1.54449e-05 8 3.39104e-06 16.5562 12.2603 0.136369 3.05323e-06 8 -2.13291e-05 3.2522 5.34874 3.17941 7.34485e-06 8 3.403e-05 1.66306 2.6545 1.62757 -5.68434e-14 8 0 1.65937 2.6493 1.62527 -0.000172248 17 -0.00025595 1.90909 0.183615 -9.34573 3.49616e-05 10.8 1.10897e-05 4.44733 -0.0775064 -21.9203 4.9998 17 -0.000193509 -3.33982 0.974848 -5.77509 6.45 0 1.13687e-13 -0.645737 -1.34685 -0.890509 6.45002 0.000119746 0.000350531 30.2199 -6.31754 8.56319 -4.90135e-06 -32.4 -1.99695 -40.9485 -69.8885 -56.3523 -1.03261e-05 -25.65 2 9.42552 -14.6582 -35.7564 -0.499992 -1.49998 2.64999 -1.58748 -31.7274 -4.61045 -4.13717e-07 -3.79998 3.70004 -0.0512934 36.1057 -0.0195888 3.5402e-07 -3.00004 2.69995 -0.0485914 9.20497 -0.0222183 1.35361e-05 -1.90009 1.59998 6.44205e-06 -1.20778e-06 -2.5375e-06 6.88047e-06 -8.29995 1.9 -0.231184 3.61929 -0.0165398 -2.07565e-06 -4.49996 -5.41051e-06 -80.7639 -0.0174519 0.00827091 -4.28726e-05 -3.4239 2.15166e-05 -67.2949 0.00645072 -0.0330555 -0.249993 -2.2 0.4 6.44205e-06 -1.20778e-06 -2.5375e-06 -1.49941e-05 -8.29998 0.999993 -18.7227 16.3212 3.67409 -2.49048e-09 -4.64997 1.1277e-06 -59.4079 0.0333221 -0.000539248 -2.56664e-05 -3.30004 1.15377e-05 -41.6287 0.0220507 0.0191082 -0.500014 -2.15006 -0.800018 6.44205e-06 -1.20778e-06 -2.5375e-06 -8.50461e-06 -7.75001 -0.199999 -54.2509 18.2341 13.3379 1.00437e-05 -3.84935 9.02652e-07 -70.3201 0.00380282 0.00461432 -1.27827e-05 -3.40003 1.35011e-05 -50.7918 -0.000987485 0.00736733 -0.75002 -1.75003 -1.85001 6.44205e-06 -1.20778e-06 -2.5375e-06 -1.75934e-05 -7.15 -0.999996 -74.7104 5.48195 11.8226 1.19021e-05 -3.00609 8.6701e-07 -54.7828 -0.000882446 0.0756564 -1.80488e-05 -2.35002 5.30195e-06 -36.9766 -0.0337247 0.044515 -5.0002 16.9999 -0.000337222 5.63718 0.903987 -3.68179 -6.45 0 0 -0.401253 -1.2699 -0.0160593 -6.44999 0.000195905 -0.000384437 -54.7673 0.388723 -60.5775 -7.16054e-05 -32.4 -1.99994 83.2865 -81.5982 96.7933 5.84589e-05 -25.65 1.99999 -20.7681 2.61999 13.0248 0.499998 -1.50004 2.65002 169.291 -71.7126 134.955 -5.89644e-05 -3.80006 3.70003 179.918 86.5128 -179.797 -8.6633e-06 -3 2.69999 -1.70569 40.8784 0.795931 6.03382e-05 -1.89997 1.6 5.71218e-06 1.61579e-06 4.07111e-06 -6.11137e-05 -8.30001 1.89996 17.8388 -19.1481 2.63167 -3.22397e-05 -4.49998 4.85188e-05 12.0864 0.0431983 -0.0182977 4.50079e-05 -3.39999 -1.6755e-05 10.3663 0.0285011 -0.0188599 0.249969 -2.19998 0.400045 5.71218e-06 1.61579e-06 4.07111e-06 2.38203e-05 -8.29996 0.999989 4.38547 -13.9099 0.282946 -1.20684e-05 -4.65003 -2.47509e-05 61.9194 0.000456985 0.00755045 3.49888e-05 -3.29996 -1.01941e-05 42.5723 -0.00208308 0.0045417 0.499994 -2.15003 -0.799997 5.71218e-06 1.61579e-06 4.07111e-06 3.32831e-05 -7.75001 -0.200036 2.11632 -11.4075 0.00113938 4.06855e-06 -3.8 1.66202e-05 50.9225 -0.180426 0.310484 -2.5278e-05 -3.39995 -9.48401e-06 35.3209 0.0226843 0.253305 0.750031 -1.74996 -1.84996 5.71218e-06 1.61579e-06 4.07111e-06 -3.73632e-05 -7.15 -0.999996 2.51483 -4.17138 0.0289687 -5.09541e-06 -2.99998 2.36568e-05 85.6435 0.00363724 0.0849125 -1.51668e-05 -2.35003 -1.12032e-05 77.5715 0.194955 0.0355464 8.00001 7.23545e-08 -1.02509e-05 22.3547 -10.0731 21.6361 6.78584e-06 -45 -1.00005 -0.728104 12.0963 -15.1216 4.7885e-06 -41 -2.00001 -13.1702 0.597705 -12.5764 -1.91192e-05 -7.5 12.5 -2.58524e-07 4.475e-06 -6.61501e-07 -1.13687e-13 3.55271e-15 4 9.08985 0.134562 47.8412 -8.00001 -7.23545e-08 1.02509e-05 -4.15871 -9.49411 -15.1522 8.32895e-06 -45 -1.00001 -0.109973 13.5751 -6.30282 -5.4844e-06 -41 -2.00006 9.7052 -2.6573 4.58296 2.94971e-05 -7.5 12.5 -0.000180392 0.00314978 1.6439e-05 -2.84217e-14 0 4 -2.06738 2.96287 45.6713 
-323.673 92.6481 606.734 -0.203785 -1.5715 155.616 -1.54449e-05 8 3.39104e-06 16.9297 12.4068 0.10481 3.05323e-06 8 -2.13291e-05 3.27186 5.40274 3.16728 7.34485e-06 8 3.403e-05 1.67311 2.68152 1.62211 -2.84217e-14 8 -1.13687e-13 1.67107 2.67713 1.61866 -0.000172248 17 -0.00025595 1.77732 0.0784582 -9.6239 3.49616e-05 10.8 1.10897e-05 4.11385 -0.301232 -22.5756 4.9998 17 -0.000193509 -3.40413 0.913585 -5.93445 6.45 0 0 -0.634824 -1.35926 -0.891389 6.45002 0.000119746 0.000350531 30.204 -6.09366 8.24666 -4.90135e-06 -32.4 -1.99695 -39.8234 -69.8826 -55.1515 -1.03261e-05 -25.65 2 9.64496 -13.6222 -34.8762 -0.499992 -1.49998 2.64999 -0.6797 -31.6942 -3.70653 -4.13717e-07 -3.79998 3.70004 -0.0523165 36.21 -0.0203804 3.5402e-07 -3.00004 2.69995 -0.0310362 9.65284 -0.0114989 1.35361e-05 -1.90009 1.59998 6.44205e-06 -1.20778e-06 -2.5375e-06 6.88047e-06 -8.29995 1.9 -0.260411 4.0939 -0.00310391 -2.07565e-06 -4.49996 -5.41051e-06 -80.9241 -0.0182897 0.0100996 -4.28726e-05 -3.4239 2.15166e-05 -67.5837 0.00724054 -0.0346526 -0.249993 -2.2 0.4 6.44205e-06 -1.20778e-06 -2.5375e-06 -1.49941e-05 -8.29998 0.999993 -19.3228 16.3863 3.76785 -2.49048e-09 -4.64997 1.1277e-06 -58.6289 0.0132498 0.00442223 -2.56664e-05 -3.30004 1.15377e-05 -40.9287 0.00546896 0.00886198 -0.500014 -2.15006 -0.800018 6.44205e-06 -1.20778e-06 -2.5375e-06 -8.50461e-06 -7.75001 -0.199999 -53.3804 18.2098 13.0069 1.00437e-05 -3.84935 9.02652e-07 -70.1915 -0.00340639 -0.00583166 -1.27827e-05 -3.40003 1.35011e-05 -50.6266 0.00292039 -0.00732931 -0.75002 -1.75003 -1.85001 6.44205e-06 -1.20778e-06 -2.5375e-06 -1.75934e-05 -7.15 -0.999996 -74.1613 5.58269 11.6975 1.19021e-05 -3.00609 8.6701e-07 -52.9837 -0.0019971 0.0592001 -1.80488e-05 -2.35002 5.30195e-06 -35.4638 -0.0250696 0.0355397 -5.0002 16.9999 -0.000337222 5.6428 0.710738 -3.86349 -6.45 0 -1.13687e-13 -0.381691 -1.25414 0.00434943 -6.44999 0.000195905 -0.000384437 -55.4527 0.266061 -59.6706 -7.16054e-05 -32.4 -1.99994 75.9434 -81.561 90.6673 5.84589e-05 -25.65 1.99999 -20.1825 2.37892 14.7889 0.499998 -1.50004 2.65002 -179.535 -72.2996 148.471 -5.89644e-05 -3.80006 3.70003 179.905 86.4433 -179.79 -8.6633e-06 -3 2.69999 -1.72104 41.2921 0.820182 6.03382e-05 -1.89997 1.6 5.71218e-06 1.61579e-06 4.07111e-06 -6.11137e-05 -8.30001 1.89996 17.7837 -20.4813 2.82464 -3.22397e-05 -4.49998 4.85188e-05 12.9933 0.129111 -0.0375325 4.50079e-05 -3.39999 -1.6755e-05 10.9816 0.0839791 -0.0454442 0.249969 -2.19998 0.400045 5.71218e-06 1.61579e-06 4.07111e-06 2.38203e-05 -8.29996 0.999989 4.03178 -14.406 0.26202 -1.20684e-05 -4.65003 -2.47509e-05 61.8605 -0.0111938 0.0254605 3.49888e-05 -3.29996 -1.01941e-05 42.522 -0.00387196 0.0228679 0.499994 -2.15003 -0.799997 5.71218e-06 1.61579e-06 4.07111e-06 3.32831e-05 -7.75001 -0.200036 1.87027 -11.3418 -0.00981057 4.06855e-06 -3.8 1.66202e-05 48.9531 -0.169182 0.295135 -2.5278e-05 -3.39995 -9.48401e-06 33.941 0.0191977 0.234767 0.750031 -1.74996 -1.84996 5.71218e-06 1.61579e-06 4.07111e-06 -3.73632e-05 -7.15 -0.999996 1.22361 -4.37893 0.0138055 -5.09541e-06 -2.99998 2.36568e-05 85.2988 -0.00314507 0.13573 -1.51668e-05 -2.35003 -1.12032e-05 76.7733 0.291485 0.0798949 8.00001 7.23545e-08 -1.02509e-05 22.3762 -9.69577 21.139 6.78584e-06 -45 -1.00005 -0.764665 12.1864 -14.9553 4.7885e-06 -41 -2.00001 -13.1822 0.519543 -12.3609 -1.91192e-05 -7.5 12.5 -2.58524e-07 4.475e-06 -6.61501e-07 0 -3.55271e-15 4 9.045 0.0504913 47.9496 -8.00001 -7.23545e-08 1.02509e-05 -4.01963 -9.74707 -15.0141 8.32895e-06 -45 -1.00001 -0.112131 13.4114 -6.32563 -5.4844e-06 -41 -2.00006 9.62961 -2.35874 5.01637 2.94971e-05 -7.5 12.5 -0.000180392 0.00324752 1.6439e-05 -2.84217e-14 -3.55271e-15 4 -1.93123 2.82928 45.6291 
